<?xml version="1.0" encoding="UTF-8"?>
<svg xmlns="http://www.w3.org/2000/svg" xmlns:xlink="http://www.w3.org/1999/xlink" width="30pt" height="30.000001pt" viewBox="0 0 30 30.000001" version="1.2">
<defs>
<clipPath id="clip1">
  <path d="M 2.8125 2.332031 L 26.765625 2.332031 L 26.765625 26.28125 L 2.8125 26.28125 Z M 2.8125 2.332031 "/>
</clipPath>
</defs>
<g id="surface1">
<path style=" stroke:none;fill-rule:nonzero;fill:rgb(8.239746%,44.709778%,90.979004%);fill-opacity:1;" d="M 12.835938 14.3125 C 12.835938 13.953125 12.546875 13.664062 12.1875 13.664062 C 11.828125 13.664062 11.539062 13.953125 11.539062 14.3125 C 11.539062 14.667969 11.828125 14.957031 12.1875 14.957031 C 12.546875 14.957031 12.835938 14.667969 12.835938 14.3125 "/>
<g clip-path="url(#clip1)" clip-rule="nonzero">
<path style=" stroke:none;fill-rule:nonzero;fill:rgb(8.239746%,44.709778%,90.979004%);fill-opacity:1;" d="M 26.738281 23.382812 C 26.738281 21.589844 26.738281 19.800781 26.738281 18.007812 C 26.738281 15.824219 26.738281 13.636719 26.738281 11.449219 C 26.738281 9.5625 26.738281 7.679688 26.738281 5.792969 C 26.738281 4.878906 26.769531 3.957031 26.738281 3.042969 C 26.738281 3.03125 26.738281 3.019531 26.738281 3.003906 C 26.738281 2.660156 26.445312 2.367188 26.097656 2.367188 C 25.347656 2.367188 24.597656 2.367188 23.847656 2.367188 C 22.046875 2.367188 20.242188 2.367188 18.441406 2.367188 C 16.269531 2.367188 14.101562 2.367188 11.929688 2.367188 C 10.042969 2.367188 8.160156 2.367188 6.277344 2.367188 C 5.359375 2.367188 4.441406 2.335938 3.523438 2.367188 C 3.511719 2.367188 3.5 2.367188 3.488281 2.367188 C 3.140625 2.367188 2.847656 2.660156 2.847656 3.003906 C 2.847656 3.753906 2.847656 4.503906 2.847656 5.257812 C 2.847656 7.058594 2.847656 8.859375 2.847656 10.660156 C 2.847656 12.832031 2.847656 15.003906 2.847656 17.171875 C 2.847656 19.058594 2.847656 20.941406 2.847656 22.828125 C 2.847656 23.742188 2.816406 24.664062 2.847656 25.578125 C 2.847656 25.589844 2.847656 25.601562 2.847656 25.617188 C 2.847656 25.960938 3.140625 26.257812 3.488281 26.257812 C 5.421875 26.257812 7.355469 26.257812 9.289062 26.257812 C 9.5625 26.257812 9.835938 26.257812 10.113281 26.257812 C 10.933594 26.257812 10.9375 24.976562 10.113281 24.976562 C 8.179688 24.976562 6.246094 24.976562 4.3125 24.976562 C 4.25 24.976562 4.1875 24.976562 4.125 24.976562 C 4.125 24.441406 4.125 23.902344 4.125 23.367188 C 4.125 21.5625 4.125 19.761719 4.125 17.960938 C 4.125 15.789062 4.125 13.617188 4.125 11.449219 C 4.125 9.5625 4.125 7.679688 4.125 5.792969 C 4.125 5.175781 4.125 4.554688 4.125 3.933594 C 4.125 3.839844 4.128906 3.742188 4.128906 3.644531 C 4.664062 3.644531 5.203125 3.644531 5.738281 3.644531 C 7.539062 3.644531 9.339844 3.644531 11.140625 3.644531 C 13.3125 3.644531 15.484375 3.644531 17.65625 3.644531 C 19.539062 3.644531 21.425781 3.644531 23.308594 3.644531 C 23.929688 3.644531 24.546875 3.644531 25.167969 3.644531 C 25.265625 3.644531 25.359375 3.648438 25.457031 3.648438 C 25.457031 4.191406 25.457031 4.730469 25.457031 5.273438 C 25.457031 7.070312 25.457031 8.863281 25.457031 10.660156 C 25.457031 12.847656 25.457031 15.035156 25.457031 17.222656 C 25.457031 19.101562 25.457031 20.984375 25.457031 22.863281 C 25.457031 23.28125 25.453125 23.699219 25.449219 24.117188 C 24.476562 23.191406 23.503906 22.269531 22.535156 21.347656 C 20.398438 19.316406 18.265625 17.289062 16.128906 15.257812 C 16.019531 15.15625 15.914062 15.054688 15.804688 14.949219 C 15.820312 14.949219 15.839844 14.949219 15.855469 14.949219 C 16.597656 14.949219 17.324219 14.914062 18.023438 14.636719 C 20.117188 13.800781 21.332031 11.625 20.9375 9.40625 C 20.546875 7.226562 18.542969 5.632812 16.355469 5.617188 C 15.414062 5.609375 14.476562 5.617188 13.539062 5.617188 C 12.394531 5.617188 11.253906 5.617188 10.113281 5.617188 C 9.914062 5.617188 9.765625 5.691406 9.664062 5.800781 C 9.550781 5.902344 9.472656 6.054688 9.472656 6.257812 C 9.472656 7.808594 9.472656 9.359375 9.472656 10.914062 C 9.472656 13.375 9.472656 15.839844 9.472656 18.300781 C 9.472656 18.867188 9.472656 19.433594 9.472656 20 C 9.472656 20.820312 10.75 20.824219 10.75 20 C 10.75 18.445312 10.75 16.894531 10.75 15.34375 C 10.75 12.878906 10.75 10.417969 10.75 7.953125 C 10.75 7.601562 10.75 7.246094 10.75 6.894531 C 12.554688 6.894531 14.355469 6.894531 16.160156 6.894531 C 16.714844 6.894531 17.179688 6.949219 17.671875 7.160156 C 18.457031 7.496094 19.050781 8.09375 19.441406 8.886719 C 19.59375 9.191406 19.71875 9.710938 19.738281 10.066406 C 19.761719 10.554688 19.722656 10.875 19.578125 11.324219 C 19.332031 12.097656 18.765625 12.792969 18.050781 13.210938 C 17.796875 13.359375 17.671875 13.414062 17.429688 13.496094 C 17.296875 13.539062 17.164062 13.574219 17.027344 13.605469 C 16.878906 13.636719 16.855469 13.640625 16.746094 13.652344 C 16.484375 13.675781 16.222656 13.671875 15.960938 13.671875 C 15.375 13.671875 14.789062 13.671875 14.203125 13.671875 C 13.660156 13.671875 13.347656 14.378906 13.753906 14.761719 C 15.089844 16.035156 16.429688 17.308594 17.769531 18.582031 C 19.902344 20.609375 22.039062 22.640625 24.171875 24.667969 C 24.664062 25.136719 25.15625 25.601562 25.644531 26.070312 C 25.648438 26.070312 25.652344 26.074219 25.65625 26.078125 C 25.65625 26.078125 25.660156 26.078125 25.660156 26.082031 C 25.855469 26.257812 26.082031 26.28125 26.28125 26.210938 C 26.5 26.15625 26.6875 25.992188 26.726562 25.726562 C 26.746094 25.652344 26.75 25.574219 26.738281 25.496094 C 26.738281 24.792969 26.738281 24.085938 26.738281 23.382812 "/>
</g>
</g>
</svg>
